<mxfile host="65bd71144e">
    <diagram id="COYzjHv4j4ajLcSenhO3" name="Page-1">
        <mxGraphModel dx="1086" dy="1156" grid="0" gridSize="10" guides="1" tooltips="1" connect="1" arrows="1" fold="1" page="1" pageScale="1" pageWidth="1100" pageHeight="850" background="#ffffff" math="0" shadow="0">
            <root>
                <mxCell id="0"/>
                <mxCell id="1" parent="0"/>
                <mxCell id="2" value="&lt;br&gt;&lt;font color=&quot;#000000&quot;&gt;&lt;br&gt;&lt;/font&gt;" style="rounded=1;whiteSpace=wrap;html=1;fillColor=none;strokeColor=#000000;" parent="1" vertex="1">
                    <mxGeometry x="200" y="20" width="670" height="190" as="geometry"/>
                </mxCell>
                <mxCell id="3" value="&lt;font style=&quot;font-size: 24px&quot;&gt;LCD&lt;/font&gt;" style="rounded=0;whiteSpace=wrap;html=1;strokeColor=#006EAF;fillColor=#1ba1e2;fontColor=#ffffff;" parent="1" vertex="1">
                    <mxGeometry x="210" y="90" width="120" height="60" as="geometry"/>
                </mxCell>
                <mxCell id="4" value="&lt;font style=&quot;font-size: 24px&quot;&gt;Rotary Encoder&lt;/font&gt;" style="rounded=0;whiteSpace=wrap;html=1;strokeColor=#006EAF;fillColor=#1ba1e2;fontColor=#ffffff;" parent="1" vertex="1">
                    <mxGeometry x="340" y="90" width="120" height="60" as="geometry"/>
                </mxCell>
                <mxCell id="5" value="&lt;font style=&quot;font-size: 24px&quot;&gt;Proximity Sensor&lt;/font&gt;" style="rounded=0;whiteSpace=wrap;html=1;strokeColor=#006EAF;fillColor=#1ba1e2;fontColor=#ffffff;" parent="1" vertex="1">
                    <mxGeometry x="470" y="90" width="130" height="60" as="geometry"/>
                </mxCell>
                <mxCell id="11" value="" style="endArrow=classic;html=1;fontSize=24;strokeColor=#000000;rounded=0;strokeWidth=2;exitX=0.132;exitY=0.004;exitDx=0;exitDy=0;exitPerimeter=0;" parent="1" source="13" target="3" edge="1">
                    <mxGeometry width="50" height="50" relative="1" as="geometry">
                        <mxPoint x="430" y="300" as="sourcePoint"/>
                        <mxPoint x="690" y="290" as="targetPoint"/>
                        <Array as="points">
                            <mxPoint x="428" y="280"/>
                            <mxPoint x="270" y="280"/>
                        </Array>
                    </mxGeometry>
                </mxCell>
                <mxCell id="18" value="User Interface" style="text;html=1;align=center;verticalAlign=middle;resizable=0;points=[];autosize=1;strokeColor=none;fillColor=none;fontSize=24;fontColor=#000000;" parent="1" vertex="1">
                    <mxGeometry x="440" y="40" width="170" height="30" as="geometry"/>
                </mxCell>
                <mxCell id="19" value="" style="rounded=1;whiteSpace=wrap;html=1;fontSize=24;fontColor=#000000;strokeColor=#000000;fillColor=none;" parent="1" vertex="1">
                    <mxGeometry x="850" y="280" width="230" height="510" as="geometry"/>
                </mxCell>
                <mxCell id="20" value="RGB LED" style="rounded=0;whiteSpace=wrap;html=1;fontSize=24;fontColor=#ffffff;strokeColor=#006EAF;fillColor=#1ba1e2;" parent="1" vertex="1">
                    <mxGeometry x="900" y="325" width="130" height="60" as="geometry"/>
                </mxCell>
                <mxCell id="21" value="Stepper Motor" style="rounded=0;whiteSpace=wrap;html=1;fontSize=24;fontColor=#ffffff;strokeColor=#006EAF;fillColor=#1ba1e2;" parent="1" vertex="1">
                    <mxGeometry x="900" y="400" width="130" height="60" as="geometry"/>
                </mxCell>
                <mxCell id="36" value="&lt;font style=&quot;font-size: 24px&quot;&gt;Real Time Clock&lt;/font&gt;" style="rounded=0;whiteSpace=wrap;html=1;strokeColor=#006EAF;fillColor=#1ba1e2;fontColor=#ffffff;" parent="1" vertex="1">
                    <mxGeometry x="900" y="480" width="130" height="60" as="geometry"/>
                </mxCell>
                <mxCell id="62" style="edgeStyle=none;rounded=0;html=1;exitX=1;exitY=0.5;exitDx=0;exitDy=0;exitPerimeter=0;entryX=-0.008;entryY=0.423;entryDx=0;entryDy=0;entryPerimeter=0;fontSize=15;fontColor=#000000;startArrow=none;startFill=0;strokeColor=#000000;strokeWidth=2;" parent="1" source="38" target="13" edge="1">
                    <mxGeometry relative="1" as="geometry"/>
                </mxCell>
                <mxCell id="38" value="&lt;font style=&quot;font-size: 24px&quot; color=&quot;#000000&quot;&gt;Power Supply&lt;/font&gt;" style="pointerEvents=1;verticalLabelPosition=bottom;shadow=0;dashed=0;align=center;html=1;verticalAlign=top;shape=mxgraph.electrical.signal_sources.source;aspect=fixed;points=[[0.5,0,0],[1,0.5,0],[0.5,1,0],[0,0.5,0]];elSignalType=square;fillColor=#FF0000;fontColor=#ffffff;strokeColor=#000000;" parent="1" vertex="1">
                    <mxGeometry x="100" y="420" width="120" height="120" as="geometry"/>
                </mxCell>
                <mxCell id="49" value="&lt;font style=&quot;font-size: 24px&quot;&gt;Piezo Sounder&lt;/font&gt;" style="rounded=0;whiteSpace=wrap;html=1;strokeColor=#006EAF;fillColor=#1ba1e2;fontColor=#ffffff;" parent="1" vertex="1">
                    <mxGeometry x="900" y="560" width="130" height="60" as="geometry"/>
                </mxCell>
                <mxCell id="50" style="edgeStyle=none;rounded=0;html=1;fontSize=15;fontColor=#000000;startArrow=none;startFill=0;strokeColor=#000000;strokeWidth=2;exitX=0.997;exitY=0.082;exitDx=0;exitDy=0;exitPerimeter=0;" parent="1" source="13" target="20" edge="1">
                    <mxGeometry relative="1" as="geometry">
                        <mxPoint x="740" y="360" as="sourcePoint"/>
                        <Array as="points"/>
                    </mxGeometry>
                </mxCell>
                <mxCell id="51" style="edgeStyle=none;rounded=0;html=1;fontSize=15;fontColor=#000000;startArrow=none;startFill=0;strokeColor=#000000;strokeWidth=2;" parent="1" target="21" edge="1">
                    <mxGeometry relative="1" as="geometry">
                        <Array as="points"/>
                        <mxPoint x="730" y="430" as="sourcePoint"/>
                    </mxGeometry>
                </mxCell>
                <mxCell id="53" style="edgeStyle=none;rounded=0;html=1;fontSize=15;fontColor=#000000;startArrow=classic;startFill=1;strokeColor=#000000;strokeWidth=2;" parent="1" target="36" edge="1">
                    <mxGeometry relative="1" as="geometry">
                        <mxPoint x="740" y="510" as="sourcePoint"/>
                        <Array as="points"/>
                    </mxGeometry>
                </mxCell>
                <mxCell id="54" value="&lt;font style=&quot;font-size: 24px&quot;&gt;6-Digit Display&lt;/font&gt;" style="rounded=0;whiteSpace=wrap;html=1;strokeColor=#006EAF;fillColor=#1ba1e2;fontColor=#ffffff;" parent="1" vertex="1">
                    <mxGeometry x="900" y="640" width="130" height="60" as="geometry"/>
                </mxCell>
                <mxCell id="59" style="edgeStyle=none;rounded=0;html=1;entryX=0;entryY=0.5;entryDx=0;entryDy=0;fontSize=15;fontColor=#000000;startArrow=none;startFill=0;strokeColor=#000000;strokeWidth=2;" parent="1" target="49" edge="1">
                    <mxGeometry relative="1" as="geometry">
                        <mxPoint x="740" y="590" as="sourcePoint"/>
                    </mxGeometry>
                </mxCell>
                <mxCell id="61" style="edgeStyle=none;rounded=0;html=1;exitX=0;exitY=0.5;exitDx=0;exitDy=0;fontSize=15;fontColor=#000000;startArrow=none;startFill=0;strokeColor=#000000;strokeWidth=2;entryX=0.5;entryY=1;entryDx=0;entryDy=0;" parent="1" source="60" target="13" edge="1">
                    <mxGeometry relative="1" as="geometry">
                        <Array as="points">
                            <mxPoint x="810" y="750"/>
                            <mxPoint x="563" y="750"/>
                        </Array>
                        <mxPoint x="750" y="750" as="targetPoint"/>
                    </mxGeometry>
                </mxCell>
                <mxCell id="60" value="&lt;font style=&quot;font-size: 24px&quot;&gt;Temperature Sensor&lt;/font&gt;" style="rounded=0;whiteSpace=wrap;html=1;strokeColor=#006EAF;fillColor=#1ba1e2;fontColor=#ffffff;" parent="1" vertex="1">
                    <mxGeometry x="900" y="720" width="130" height="60" as="geometry"/>
                </mxCell>
                <mxCell id="63" value="Push&lt;br&gt;Buttons" style="rounded=0;whiteSpace=wrap;html=1;fontSize=24;fontColor=#ffffff;strokeColor=#006EAF;fillColor=#1ba1e2;" vertex="1" parent="1">
                    <mxGeometry x="610" y="90" width="120" height="60" as="geometry"/>
                </mxCell>
                <mxCell id="68" value="" style="endArrow=none;html=1;rounded=0;fontSize=24;strokeColor=#000000;strokeWidth=2;startArrow=classic;startFill=1;exitX=0.424;exitY=0;exitDx=0;exitDy=0;exitPerimeter=0;entryX=0.5;entryY=1;entryDx=0;entryDy=0;endFill=0;" edge="1" parent="1">
                    <mxGeometry width="50" height="50" relative="1" as="geometry">
                        <mxPoint x="560.0000000000001" y="325" as="sourcePoint"/>
                        <mxPoint x="560.24" y="150" as="targetPoint"/>
                        <Array as="points">
                            <mxPoint x="560.24" y="230"/>
                        </Array>
                    </mxGeometry>
                </mxCell>
                <mxCell id="69" value="" style="endArrow=classic;html=1;rounded=0;fontSize=24;strokeColor=#000000;strokeWidth=2;startArrow=none;startFill=0;exitX=0.424;exitY=0;exitDx=0;exitDy=0;exitPerimeter=0;entryX=0.5;entryY=1;entryDx=0;entryDy=0;" edge="1" parent="1">
                    <mxGeometry width="50" height="50" relative="1" as="geometry">
                        <mxPoint x="510.0000000000001" y="325" as="sourcePoint"/>
                        <mxPoint x="510.24" y="150" as="targetPoint"/>
                        <Array as="points">
                            <mxPoint x="510.24" y="230"/>
                        </Array>
                    </mxGeometry>
                </mxCell>
                <mxCell id="67" value="Step Down" style="rounded=0;whiteSpace=wrap;html=1;fontSize=24;fillColor=#647687;fontColor=#ffffff;strokeColor=#314354;" vertex="1" parent="1">
                    <mxGeometry x="530" y="220" width="60" height="60" as="geometry"/>
                </mxCell>
                <mxCell id="70" style="edgeStyle=none;rounded=0;html=1;fontSize=15;fontColor=#000000;startArrow=none;startFill=0;strokeColor=#000000;strokeWidth=2;exitX=0.997;exitY=0.943;exitDx=0;exitDy=0;exitPerimeter=0;" edge="1" parent="1">
                    <mxGeometry relative="1" as="geometry">
                        <mxPoint x="743.905" y="649.8649999999999" as="sourcePoint"/>
                        <mxPoint x="900" y="650.3366666666667" as="targetPoint"/>
                        <Array as="points">
                            <mxPoint x="770" y="649.67"/>
                        </Array>
                    </mxGeometry>
                </mxCell>
                <mxCell id="71" style="edgeStyle=none;rounded=0;html=1;fontSize=15;fontColor=#000000;startArrow=classic;startFill=1;strokeColor=#000000;strokeWidth=2;endArrow=none;endFill=0;exitX=1;exitY=1;exitDx=0;exitDy=0;" edge="1" parent="1" source="13">
                    <mxGeometry relative="1" as="geometry">
                        <mxPoint x="740" y="691" as="sourcePoint"/>
                        <mxPoint x="900" y="690.6666666666667" as="targetPoint"/>
                        <Array as="points"/>
                    </mxGeometry>
                </mxCell>
                <mxCell id="66" value="Step Up" style="rounded=0;whiteSpace=wrap;html=1;fontSize=24;fillColor=#647687;fontColor=#ffffff;strokeColor=#314354;" vertex="1" parent="1">
                    <mxGeometry x="790" y="620" width="60" height="60" as="geometry"/>
                </mxCell>
                <object label="MSP" id="12">
                    <mxCell parent="0"/>
                </object>
                <mxCell id="32" style="edgeStyle=none;rounded=0;html=1;entryX=0.5;entryY=1;entryDx=0;entryDy=0;fontSize=24;fontColor=#000000;startArrow=classic;startFill=1;endArrow=none;endFill=0;strokeColor=#000000;strokeWidth=2;exitX=0.74;exitY=-0.004;exitDx=0;exitDy=0;exitPerimeter=0;" parent="12" source="13" edge="1">
                    <mxGeometry relative="1" as="geometry">
                        <Array as="points">
                            <mxPoint x="650" y="270"/>
                            <mxPoint x="660" y="270"/>
                            <mxPoint x="670" y="270"/>
                        </Array>
                        <mxPoint x="670" y="150" as="targetPoint"/>
                    </mxGeometry>
                </mxCell>
                <mxCell id="33" style="edgeStyle=none;rounded=0;html=1;entryX=0.5;entryY=1;entryDx=0;entryDy=0;fontSize=24;fontColor=#000000;startArrow=classic;startFill=1;endArrow=none;endFill=0;strokeColor=#000000;strokeWidth=2;" parent="12" target="29" edge="1">
                    <mxGeometry relative="1" as="geometry">
                        <Array as="points">
                            <mxPoint x="690" y="290"/>
                            <mxPoint x="800" y="290"/>
                        </Array>
                        <mxPoint x="690" y="330" as="sourcePoint"/>
                    </mxGeometry>
                </mxCell>
                <mxCell id="13" value="&lt;font style=&quot;font-size: 24px&quot;&gt;MSP432&lt;/font&gt;" style="whiteSpace=wrap;html=1;aspect=fixed;strokeColor=#6F0000;fillColor=#a20025;fontColor=#ffffff;" parent="12" vertex="1">
                    <mxGeometry x="380" y="325" width="365" height="365" as="geometry"/>
                </mxCell>
                <mxCell id="26" value="" style="endArrow=none;html=1;rounded=0;fontSize=24;strokeColor=#000000;strokeWidth=2;entryX=0.571;entryY=1.058;entryDx=0;entryDy=0;startArrow=classic;startFill=1;endFill=0;entryPerimeter=0;exitX=0.25;exitY=0;exitDx=0;exitDy=0;" parent="12" source="13" target="4" edge="1">
                    <mxGeometry width="50" height="50" relative="1" as="geometry">
                        <mxPoint x="490" y="310" as="sourcePoint"/>
                        <mxPoint x="520" y="119.99999999999989" as="targetPoint"/>
                        <Array as="points">
                            <mxPoint x="470" y="240"/>
                            <mxPoint x="409" y="240"/>
                        </Array>
                    </mxGeometry>
                </mxCell>
                <mxCell id="27" value="User Indicators" style="text;html=1;align=center;verticalAlign=middle;resizable=0;points=[];autosize=1;strokeColor=none;fillColor=none;fontSize=24;fontColor=#000000;" parent="12" vertex="1">
                    <mxGeometry x="875" y="290" width="180" height="30" as="geometry"/>
                </mxCell>
                <mxCell id="29" value="&lt;font style=&quot;font-size: 24px&quot;&gt;Keypad&lt;/font&gt;" style="rounded=0;whiteSpace=wrap;html=1;strokeColor=#006EAF;fillColor=#1ba1e2;fontColor=#ffffff;" parent="12" vertex="1">
                    <mxGeometry x="740" y="90" width="120" height="60" as="geometry"/>
                </mxCell>
            </root>
        </mxGraphModel>
    </diagram>
</mxfile>